<mxfile host="app.diagrams.net" agent="Mozilla/5.0 (Windows NT 10.0; Win64; x64) AppleWebKit/537.36 (KHTML, like Gecko) Chrome/133.0.0.0 Safari/537.36" version="26.0.16">
  <diagram name="Page-1" id="sowGGKyg7QWPcVTl7CEb">
    <mxGraphModel dx="1602" dy="920" grid="1" gridSize="10" guides="1" tooltips="1" connect="1" arrows="1" fold="1" page="1" pageScale="1" pageWidth="1100" pageHeight="1700" math="0" shadow="0">
      <root>
        <mxCell id="0" />
        <mxCell id="1" parent="0" />
        <mxCell id="6-r1g4GIkUJgTbIFFCG5-5" style="edgeStyle=orthogonalEdgeStyle;rounded=0;orthogonalLoop=1;jettySize=auto;html=1;entryX=0;entryY=0.5;entryDx=0;entryDy=0;strokeWidth=2;" edge="1" parent="1" source="6-r1g4GIkUJgTbIFFCG5-1" target="6-r1g4GIkUJgTbIFFCG5-4">
          <mxGeometry relative="1" as="geometry" />
        </mxCell>
        <mxCell id="6-r1g4GIkUJgTbIFFCG5-1" value="Clock&amp;nbsp;&lt;div&gt;Divider&lt;/div&gt;&lt;div&gt;(T-FF)&lt;/div&gt;" style="whiteSpace=wrap;html=1;aspect=fixed;" vertex="1" parent="1">
          <mxGeometry x="170" y="170" width="80" height="80" as="geometry" />
        </mxCell>
        <mxCell id="6-r1g4GIkUJgTbIFFCG5-2" value="" style="endArrow=classic;html=1;rounded=0;entryX=0;entryY=0.5;entryDx=0;entryDy=0;strokeWidth=8;" edge="1" parent="1" target="6-r1g4GIkUJgTbIFFCG5-1">
          <mxGeometry width="50" height="50" relative="1" as="geometry">
            <mxPoint x="50" y="210" as="sourcePoint" />
            <mxPoint x="570" y="220" as="targetPoint" />
          </mxGeometry>
        </mxCell>
        <mxCell id="6-r1g4GIkUJgTbIFFCG5-3" value="&lt;b&gt;&lt;font style=&quot;font-size: 15px;&quot;&gt;clk&amp;nbsp;&lt;/font&gt;&lt;/b&gt;" style="text;html=1;align=center;verticalAlign=middle;resizable=0;points=[];autosize=1;strokeColor=none;fillColor=none;" vertex="1" parent="1">
          <mxGeometry x="35" y="180" width="50" height="30" as="geometry" />
        </mxCell>
        <mxCell id="6-r1g4GIkUJgTbIFFCG5-18" style="edgeStyle=orthogonalEdgeStyle;rounded=0;orthogonalLoop=1;jettySize=auto;html=1;entryX=0.5;entryY=1;entryDx=0;entryDy=0;strokeWidth=2;" edge="1" parent="1" source="6-r1g4GIkUJgTbIFFCG5-4" target="6-r1g4GIkUJgTbIFFCG5-6">
          <mxGeometry relative="1" as="geometry" />
        </mxCell>
        <mxCell id="6-r1g4GIkUJgTbIFFCG5-22" value="sel" style="edgeLabel;html=1;align=center;verticalAlign=middle;resizable=0;points=[];" vertex="1" connectable="0" parent="6-r1g4GIkUJgTbIFFCG5-18">
          <mxGeometry x="-0.7978" y="1" relative="1" as="geometry">
            <mxPoint as="offset" />
          </mxGeometry>
        </mxCell>
        <mxCell id="6-r1g4GIkUJgTbIFFCG5-4" value="3-bit&lt;div&gt;counter&lt;/div&gt;&lt;div&gt;(D-FF)&lt;/div&gt;" style="whiteSpace=wrap;html=1;aspect=fixed;" vertex="1" parent="1">
          <mxGeometry x="321" y="170" width="80" height="80" as="geometry" />
        </mxCell>
        <mxCell id="6-r1g4GIkUJgTbIFFCG5-35" style="edgeStyle=orthogonalEdgeStyle;rounded=0;orthogonalLoop=1;jettySize=auto;html=1;entryX=0.5;entryY=1;entryDx=0;entryDy=0;strokeWidth=3;" edge="1" parent="1" source="6-r1g4GIkUJgTbIFFCG5-6" target="6-r1g4GIkUJgTbIFFCG5-34">
          <mxGeometry relative="1" as="geometry" />
        </mxCell>
        <mxCell id="6-r1g4GIkUJgTbIFFCG5-41" value="data" style="edgeLabel;html=1;align=center;verticalAlign=middle;resizable=0;points=[];" vertex="1" connectable="0" parent="6-r1g4GIkUJgTbIFFCG5-35">
          <mxGeometry x="-0.6526" y="1" relative="1" as="geometry">
            <mxPoint as="offset" />
          </mxGeometry>
        </mxCell>
        <mxCell id="6-r1g4GIkUJgTbIFFCG5-6" value="Register&lt;div&gt;8x4bit&lt;/div&gt;" style="rounded=0;whiteSpace=wrap;html=1;direction=south;" vertex="1" parent="1">
          <mxGeometry x="500" y="150" width="60" height="120" as="geometry" />
        </mxCell>
        <mxCell id="6-r1g4GIkUJgTbIFFCG5-12" value="" style="endArrow=none;html=1;rounded=0;strokeWidth=6;" edge="1" parent="1">
          <mxGeometry width="50" height="50" relative="1" as="geometry">
            <mxPoint x="130" y="192.5" as="sourcePoint" />
            <mxPoint x="90" y="227.5" as="targetPoint" />
          </mxGeometry>
        </mxCell>
        <mxCell id="6-r1g4GIkUJgTbIFFCG5-13" value="20" style="text;html=1;align=center;verticalAlign=middle;resizable=0;points=[];autosize=1;strokeColor=none;fillColor=none;" vertex="1" parent="1">
          <mxGeometry x="90" y="180" width="40" height="30" as="geometry" />
        </mxCell>
        <mxCell id="6-r1g4GIkUJgTbIFFCG5-14" value="" style="endArrow=none;html=1;rounded=0;strokeWidth=2;" edge="1" parent="1">
          <mxGeometry width="50" height="50" relative="1" as="geometry">
            <mxPoint x="300" y="200" as="sourcePoint" />
            <mxPoint x="280" y="220" as="targetPoint" />
          </mxGeometry>
        </mxCell>
        <mxCell id="6-r1g4GIkUJgTbIFFCG5-15" value="3" style="text;html=1;align=center;verticalAlign=middle;resizable=0;points=[];autosize=1;strokeColor=none;fillColor=none;" vertex="1" parent="1">
          <mxGeometry x="270" y="188" width="30" height="30" as="geometry" />
        </mxCell>
        <mxCell id="6-r1g4GIkUJgTbIFFCG5-19" value="" style="endArrow=classic;html=1;rounded=0;entryX=0.75;entryY=1;entryDx=0;entryDy=0;" edge="1" parent="1" target="6-r1g4GIkUJgTbIFFCG5-6">
          <mxGeometry width="50" height="50" relative="1" as="geometry">
            <mxPoint x="430" y="240" as="sourcePoint" />
            <mxPoint x="490" y="290" as="targetPoint" />
            <Array as="points" />
          </mxGeometry>
        </mxCell>
        <mxCell id="6-r1g4GIkUJgTbIFFCG5-20" value="write" style="text;html=1;align=center;verticalAlign=middle;resizable=0;points=[];autosize=1;strokeColor=none;fillColor=none;fontSize=10;" vertex="1" parent="1">
          <mxGeometry x="400" y="218" width="40" height="30" as="geometry" />
        </mxCell>
        <mxCell id="6-r1g4GIkUJgTbIFFCG5-21" value="" style="endArrow=classic;html=1;rounded=0;entryX=0.25;entryY=1;entryDx=0;entryDy=0;strokeWidth=3;" edge="1" parent="1" target="6-r1g4GIkUJgTbIFFCG5-6">
          <mxGeometry width="50" height="50" relative="1" as="geometry">
            <mxPoint x="410" y="180" as="sourcePoint" />
            <mxPoint x="490" y="179" as="targetPoint" />
          </mxGeometry>
        </mxCell>
        <mxCell id="6-r1g4GIkUJgTbIFFCG5-23" value="" style="endArrow=none;html=1;rounded=0;strokeWidth=2;" edge="1" parent="1">
          <mxGeometry width="50" height="50" relative="1" as="geometry">
            <mxPoint x="450" y="200" as="sourcePoint" />
            <mxPoint x="430" y="220" as="targetPoint" />
          </mxGeometry>
        </mxCell>
        <mxCell id="6-r1g4GIkUJgTbIFFCG5-24" value="3" style="text;html=1;align=center;verticalAlign=middle;resizable=0;points=[];autosize=1;strokeColor=none;fillColor=none;fontSize=11;" vertex="1" parent="1">
          <mxGeometry x="425" y="188" width="30" height="30" as="geometry" />
        </mxCell>
        <mxCell id="6-r1g4GIkUJgTbIFFCG5-26" value="&lt;font style=&quot;font-size: 10px;&quot;&gt;num&lt;/font&gt;" style="text;html=1;align=center;verticalAlign=middle;resizable=0;points=[];autosize=1;strokeColor=none;fillColor=none;" vertex="1" parent="1">
          <mxGeometry x="400" y="158" width="40" height="30" as="geometry" />
        </mxCell>
        <mxCell id="6-r1g4GIkUJgTbIFFCG5-27" value="4" style="text;html=1;align=center;verticalAlign=middle;resizable=0;points=[];autosize=1;strokeColor=none;fillColor=none;fontSize=11;" vertex="1" parent="1">
          <mxGeometry x="425" y="158" width="30" height="30" as="geometry" />
        </mxCell>
        <mxCell id="6-r1g4GIkUJgTbIFFCG5-33" value="" style="endArrow=none;html=1;rounded=0;strokeWidth=2;" edge="1" parent="1">
          <mxGeometry width="50" height="50" relative="1" as="geometry">
            <mxPoint x="450" y="170" as="sourcePoint" />
            <mxPoint x="430" y="190" as="targetPoint" />
          </mxGeometry>
        </mxCell>
        <mxCell id="6-r1g4GIkUJgTbIFFCG5-43" style="edgeStyle=orthogonalEdgeStyle;rounded=0;orthogonalLoop=1;jettySize=auto;html=1;fontSize=11;strokeWidth=5;" edge="1" parent="1" source="6-r1g4GIkUJgTbIFFCG5-34" target="6-r1g4GIkUJgTbIFFCG5-66">
          <mxGeometry relative="1" as="geometry">
            <mxPoint x="800" y="210" as="targetPoint" />
          </mxGeometry>
        </mxCell>
        <mxCell id="6-r1g4GIkUJgTbIFFCG5-45" value="segout" style="edgeLabel;html=1;align=center;verticalAlign=middle;resizable=0;points=[];" vertex="1" connectable="0" parent="6-r1g4GIkUJgTbIFFCG5-43">
          <mxGeometry x="-0.4652" relative="1" as="geometry">
            <mxPoint as="offset" />
          </mxGeometry>
        </mxCell>
        <mxCell id="6-r1g4GIkUJgTbIFFCG5-34" value="Seven Segment&amp;nbsp;&lt;div&gt;Decoder&lt;/div&gt;" style="rounded=0;whiteSpace=wrap;html=1;direction=south;" vertex="1" parent="1">
          <mxGeometry x="650" y="150" width="60" height="120" as="geometry" />
        </mxCell>
        <mxCell id="6-r1g4GIkUJgTbIFFCG5-37" value="" style="endArrow=none;html=1;rounded=0;strokeWidth=2;" edge="1" parent="1">
          <mxGeometry width="50" height="50" relative="1" as="geometry">
            <mxPoint x="630" y="198" as="sourcePoint" />
            <mxPoint x="610" y="218" as="targetPoint" />
          </mxGeometry>
        </mxCell>
        <mxCell id="6-r1g4GIkUJgTbIFFCG5-42" value="&lt;font style=&quot;font-size: 11px;&quot;&gt;4&lt;/font&gt;" style="text;html=1;align=center;verticalAlign=middle;resizable=0;points=[];autosize=1;strokeColor=none;fillColor=none;" vertex="1" parent="1">
          <mxGeometry x="600" y="188" width="30" height="30" as="geometry" />
        </mxCell>
        <mxCell id="6-r1g4GIkUJgTbIFFCG5-46" value="" style="endArrow=none;html=1;rounded=0;strokeWidth=3;" edge="1" parent="1">
          <mxGeometry width="50" height="50" relative="1" as="geometry">
            <mxPoint x="775" y="200" as="sourcePoint" />
            <mxPoint x="755" y="220" as="targetPoint" />
          </mxGeometry>
        </mxCell>
        <mxCell id="6-r1g4GIkUJgTbIFFCG5-47" value="&lt;font style=&quot;font-size: 13px;&quot;&gt;8&lt;/font&gt;" style="edgeLabel;html=1;align=center;verticalAlign=middle;resizable=0;points=[];" vertex="1" connectable="0" parent="6-r1g4GIkUJgTbIFFCG5-46">
          <mxGeometry x="-0.0478" y="-11" relative="1" as="geometry">
            <mxPoint x="2" y="-4" as="offset" />
          </mxGeometry>
        </mxCell>
        <mxCell id="6-r1g4GIkUJgTbIFFCG5-51" value="Seven Segment Displays" style="text;html=1;align=center;verticalAlign=middle;resizable=0;points=[];autosize=1;strokeColor=none;fillColor=none;" vertex="1" parent="1">
          <mxGeometry x="870" y="197.5" width="160" height="30" as="geometry" />
        </mxCell>
        <mxCell id="6-r1g4GIkUJgTbIFFCG5-68" style="edgeStyle=orthogonalEdgeStyle;rounded=0;orthogonalLoop=1;jettySize=auto;html=1;" edge="1" parent="1" source="6-r1g4GIkUJgTbIFFCG5-66">
          <mxGeometry relative="1" as="geometry">
            <mxPoint x="874" y="210" as="targetPoint" />
          </mxGeometry>
        </mxCell>
        <mxCell id="6-r1g4GIkUJgTbIFFCG5-66" value="" style="shape=or;whiteSpace=wrap;html=1;" vertex="1" parent="1">
          <mxGeometry x="800" y="192.5" width="30" height="35" as="geometry" />
        </mxCell>
        <mxCell id="6-r1g4GIkUJgTbIFFCG5-74" value="" style="endArrow=classic;html=1;rounded=0;entryX=0;entryY=0.5;entryDx=0;entryDy=0;" edge="1" parent="1" target="6-r1g4GIkUJgTbIFFCG5-75">
          <mxGeometry width="50" height="50" relative="1" as="geometry">
            <mxPoint x="470" y="240" as="sourcePoint" />
            <mxPoint x="750" y="280" as="targetPoint" />
            <Array as="points">
              <mxPoint x="470" y="280" />
              <mxPoint x="660" y="280" />
            </Array>
          </mxGeometry>
        </mxCell>
        <mxCell id="6-r1g4GIkUJgTbIFFCG5-75" value="" style="triangle;whiteSpace=wrap;html=1;" vertex="1" parent="1">
          <mxGeometry x="730" y="260" width="30" height="40" as="geometry" />
        </mxCell>
        <mxCell id="6-r1g4GIkUJgTbIFFCG5-78" value="" style="ellipse;whiteSpace=wrap;html=1;aspect=fixed;" vertex="1" parent="1">
          <mxGeometry x="760" y="275" width="10" height="10" as="geometry" />
        </mxCell>
        <mxCell id="6-r1g4GIkUJgTbIFFCG5-81" style="edgeStyle=orthogonalEdgeStyle;rounded=0;orthogonalLoop=1;jettySize=auto;html=1;exitX=1;exitY=0.5;exitDx=0;exitDy=0;" edge="1" parent="1" source="6-r1g4GIkUJgTbIFFCG5-78">
          <mxGeometry relative="1" as="geometry">
            <mxPoint x="800" y="279.25" as="sourcePoint" />
            <mxPoint x="800" y="218" as="targetPoint" />
            <Array as="points">
              <mxPoint x="780" y="280" />
              <mxPoint x="780" y="218" />
            </Array>
          </mxGeometry>
        </mxCell>
      </root>
    </mxGraphModel>
  </diagram>
</mxfile>
